<mxfile host="app.diagrams.net" modified="2022-12-07T11:25:24.202Z" agent="5.0 (Windows NT 10.0; Win64; x64) AppleWebKit/537.36 (KHTML, like Gecko) Chrome/102.0.5005.167 YaBrowser/22.7.3.831 Yowser/2.5 Safari/537.36" version="20.6.0" etag="ji1YuK9tOTjm1qscwR40" type="github" pages="3">
  <diagram id="xphyGbncTK_kwrSuBOUP" name="Страница 1">
    <mxGraphModel dx="1374" dy="829" grid="1" gridSize="10" guides="1" tooltips="1" connect="1" arrows="1" fold="1" page="1" pageScale="1" pageWidth="827" pageHeight="1169" math="0" shadow="0">
      <root>
        <mxCell id="0" />
        <mxCell id="1" parent="0" />
        <mxCell id="wlJPBZIJKF9GaOBIDwzw-1" value="&lt;font style=&quot;font-size: 20px;&quot; face=&quot;Times New Roman&quot;&gt;1. Блок-схема&amp;nbsp;&lt;span style=&quot;color: rgb(44, 45, 48); text-align: left; background-color: rgb(255, 255, 255);&quot;&gt;нахождения среднего арифметического из 4-х чисел&lt;/span&gt;&lt;/font&gt;" style="text;html=1;align=center;verticalAlign=middle;resizable=0;points=[];autosize=1;strokeColor=none;fillColor=none;fontStyle=1" vertex="1" parent="1">
          <mxGeometry x="110" y="20" width="620" height="40" as="geometry" />
        </mxCell>
        <mxCell id="wlJPBZIJKF9GaOBIDwzw-6" style="edgeStyle=orthogonalEdgeStyle;rounded=0;orthogonalLoop=1;jettySize=auto;html=1;exitX=0.5;exitY=1;exitDx=0;exitDy=0;entryX=0.5;entryY=0;entryDx=0;entryDy=0;fontFamily=Times New Roman;fontSize=12;" edge="1" parent="1" source="wlJPBZIJKF9GaOBIDwzw-3" target="wlJPBZIJKF9GaOBIDwzw-4">
          <mxGeometry relative="1" as="geometry" />
        </mxCell>
        <mxCell id="wlJPBZIJKF9GaOBIDwzw-3" value="&lt;font style=&quot;font-size: 12px;&quot;&gt;START&lt;/font&gt;" style="rounded=1;whiteSpace=wrap;html=1;fontFamily=Times New Roman;fontSize=20;" vertex="1" parent="1">
          <mxGeometry x="354" y="80" width="120" height="60" as="geometry" />
        </mxCell>
        <mxCell id="wlJPBZIJKF9GaOBIDwzw-8" style="edgeStyle=orthogonalEdgeStyle;rounded=0;orthogonalLoop=1;jettySize=auto;html=1;exitX=0.5;exitY=1;exitDx=0;exitDy=0;entryX=0.5;entryY=0;entryDx=0;entryDy=0;fontFamily=Times New Roman;fontSize=12;" edge="1" parent="1" source="wlJPBZIJKF9GaOBIDwzw-4">
          <mxGeometry relative="1" as="geometry">
            <mxPoint x="414" y="280" as="targetPoint" />
          </mxGeometry>
        </mxCell>
        <mxCell id="wlJPBZIJKF9GaOBIDwzw-4" value="num1, num2,&lt;br&gt;num3, num4" style="shape=parallelogram;perimeter=parallelogramPerimeter;whiteSpace=wrap;html=1;fixedSize=1;fontFamily=Times New Roman;fontSize=12;" vertex="1" parent="1">
          <mxGeometry x="354" y="180" width="120" height="60" as="geometry" />
        </mxCell>
        <mxCell id="wlJPBZIJKF9GaOBIDwzw-11" style="edgeStyle=orthogonalEdgeStyle;rounded=0;orthogonalLoop=1;jettySize=auto;html=1;exitX=0.5;exitY=1;exitDx=0;exitDy=0;entryX=0.45;entryY=0.033;entryDx=0;entryDy=0;entryPerimeter=0;fontFamily=Times New Roman;fontSize=12;" edge="1" parent="1" source="wlJPBZIJKF9GaOBIDwzw-9" target="wlJPBZIJKF9GaOBIDwzw-10">
          <mxGeometry relative="1" as="geometry" />
        </mxCell>
        <mxCell id="wlJPBZIJKF9GaOBIDwzw-9" value="arihmetic_mean = (num1 + num2 + num3 + num4)/4" style="rounded=0;whiteSpace=wrap;html=1;fontFamily=Times New Roman;fontSize=12;" vertex="1" parent="1">
          <mxGeometry x="354" y="280" width="120" height="60" as="geometry" />
        </mxCell>
        <mxCell id="wlJPBZIJKF9GaOBIDwzw-13" style="edgeStyle=orthogonalEdgeStyle;rounded=0;orthogonalLoop=1;jettySize=auto;html=1;exitX=0.5;exitY=1;exitDx=0;exitDy=0;entryX=0.5;entryY=0;entryDx=0;entryDy=0;fontFamily=Times New Roman;fontSize=12;" edge="1" parent="1" source="wlJPBZIJKF9GaOBIDwzw-10" target="wlJPBZIJKF9GaOBIDwzw-12">
          <mxGeometry relative="1" as="geometry" />
        </mxCell>
        <mxCell id="wlJPBZIJKF9GaOBIDwzw-10" value="arihmetic_mean" style="shape=parallelogram;perimeter=parallelogramPerimeter;whiteSpace=wrap;html=1;fixedSize=1;fontFamily=Times New Roman;fontSize=12;" vertex="1" parent="1">
          <mxGeometry x="360" y="380" width="120" height="60" as="geometry" />
        </mxCell>
        <mxCell id="wlJPBZIJKF9GaOBIDwzw-12" value="END" style="rounded=1;whiteSpace=wrap;html=1;fontFamily=Times New Roman;fontSize=12;" vertex="1" parent="1">
          <mxGeometry x="360" y="480" width="120" height="60" as="geometry" />
        </mxCell>
      </root>
    </mxGraphModel>
  </diagram>
  <diagram id="Q4YTUZeBAvkUNThLs5cU" name="Страница 2">
    <mxGraphModel dx="1374" dy="829" grid="1" gridSize="10" guides="1" tooltips="1" connect="1" arrows="1" fold="1" page="1" pageScale="1" pageWidth="827" pageHeight="1169" math="0" shadow="0">
      <root>
        <mxCell id="0" />
        <mxCell id="1" parent="0" />
        <mxCell id="oC9hZT73eDsgH9Gpn7XX-1" value="&lt;font style=&quot;font-size: 20px;&quot; face=&quot;Times New Roman&quot;&gt;2. Блок-схема&amp;nbsp;&lt;span style=&quot;color: rgb(44, 45, 48); text-align: left; background-color: rgb(255, 255, 255);&quot;&gt;нахождения факториала числа N&lt;/span&gt;&lt;/font&gt;" style="text;html=1;align=center;verticalAlign=middle;resizable=0;points=[];autosize=1;strokeColor=none;fillColor=none;fontStyle=1" vertex="1" parent="1">
          <mxGeometry x="195" y="20" width="450" height="40" as="geometry" />
        </mxCell>
        <mxCell id="geLcxxCm4v_wb1jKpCUK-5" style="edgeStyle=orthogonalEdgeStyle;rounded=0;orthogonalLoop=1;jettySize=auto;html=1;exitX=0.5;exitY=1;exitDx=0;exitDy=0;entryX=0.5;entryY=0;entryDx=0;entryDy=0;fontFamily=Times New Roman;fontSize=12;" edge="1" parent="1" source="geLcxxCm4v_wb1jKpCUK-1" target="geLcxxCm4v_wb1jKpCUK-2">
          <mxGeometry relative="1" as="geometry" />
        </mxCell>
        <mxCell id="geLcxxCm4v_wb1jKpCUK-1" value="START" style="rounded=1;whiteSpace=wrap;html=1;fontFamily=Times New Roman;fontSize=12;" vertex="1" parent="1">
          <mxGeometry x="354" y="80" width="120" height="60" as="geometry" />
        </mxCell>
        <mxCell id="geLcxxCm4v_wb1jKpCUK-6" style="edgeStyle=orthogonalEdgeStyle;rounded=0;orthogonalLoop=1;jettySize=auto;html=1;exitX=0.5;exitY=1;exitDx=0;exitDy=0;entryX=0.5;entryY=0;entryDx=0;entryDy=0;fontFamily=Times New Roman;fontSize=12;" edge="1" parent="1" source="geLcxxCm4v_wb1jKpCUK-2" target="geLcxxCm4v_wb1jKpCUK-4">
          <mxGeometry relative="1" as="geometry" />
        </mxCell>
        <mxCell id="geLcxxCm4v_wb1jKpCUK-2" value="factorial_n" style="shape=parallelogram;perimeter=parallelogramPerimeter;whiteSpace=wrap;html=1;fixedSize=1;fontFamily=Times New Roman;fontSize=12;" vertex="1" parent="1">
          <mxGeometry x="354" y="170" width="120" height="60" as="geometry" />
        </mxCell>
        <mxCell id="geLcxxCm4v_wb1jKpCUK-11" value="YES" style="edgeStyle=orthogonalEdgeStyle;rounded=0;orthogonalLoop=1;jettySize=auto;html=1;exitX=0;exitY=0.5;exitDx=0;exitDy=0;entryX=0.5;entryY=0;entryDx=0;entryDy=0;fontFamily=Times New Roman;fontSize=12;" edge="1" parent="1" source="geLcxxCm4v_wb1jKpCUK-3" target="geLcxxCm4v_wb1jKpCUK-9">
          <mxGeometry x="-0.0692" y="-10" relative="1" as="geometry">
            <Array as="points">
              <mxPoint x="255" y="390" />
            </Array>
            <mxPoint as="offset" />
          </mxGeometry>
        </mxCell>
        <mxCell id="geLcxxCm4v_wb1jKpCUK-17" style="edgeStyle=orthogonalEdgeStyle;rounded=0;orthogonalLoop=1;jettySize=auto;html=1;exitX=0.5;exitY=1;exitDx=0;exitDy=0;entryX=0.444;entryY=0.024;entryDx=0;entryDy=0;entryPerimeter=0;fontFamily=Times New Roman;fontSize=12;" edge="1" parent="1" source="geLcxxCm4v_wb1jKpCUK-3" target="geLcxxCm4v_wb1jKpCUK-8">
          <mxGeometry relative="1" as="geometry" />
        </mxCell>
        <mxCell id="geLcxxCm4v_wb1jKpCUK-18" value="NO" style="edgeLabel;html=1;align=center;verticalAlign=middle;resizable=0;points=[];fontSize=12;fontFamily=Times New Roman;" vertex="1" connectable="0" parent="geLcxxCm4v_wb1jKpCUK-17">
          <mxGeometry x="-0.2332" y="3" relative="1" as="geometry">
            <mxPoint x="13" y="4" as="offset" />
          </mxGeometry>
        </mxCell>
        <mxCell id="geLcxxCm4v_wb1jKpCUK-3" value="digit &amp;lt;= factorial_n" style="rhombus;whiteSpace=wrap;html=1;fontFamily=Times New Roman;fontSize=12;" vertex="1" parent="1">
          <mxGeometry x="374" y="350" width="80" height="80" as="geometry" />
        </mxCell>
        <mxCell id="geLcxxCm4v_wb1jKpCUK-7" style="edgeStyle=orthogonalEdgeStyle;rounded=0;orthogonalLoop=1;jettySize=auto;html=1;exitX=0.5;exitY=1;exitDx=0;exitDy=0;entryX=0.5;entryY=0;entryDx=0;entryDy=0;fontFamily=Times New Roman;fontSize=12;" edge="1" parent="1" source="geLcxxCm4v_wb1jKpCUK-4" target="geLcxxCm4v_wb1jKpCUK-3">
          <mxGeometry relative="1" as="geometry" />
        </mxCell>
        <mxCell id="geLcxxCm4v_wb1jKpCUK-4" value="digit = 1&lt;br&gt;factorial = 1" style="rounded=0;whiteSpace=wrap;html=1;fontFamily=Times New Roman;fontSize=12;" vertex="1" parent="1">
          <mxGeometry x="354" y="260" width="120" height="60" as="geometry" />
        </mxCell>
        <mxCell id="geLcxxCm4v_wb1jKpCUK-20" style="edgeStyle=orthogonalEdgeStyle;rounded=0;orthogonalLoop=1;jettySize=auto;html=1;exitX=0.5;exitY=1;exitDx=0;exitDy=0;entryX=0.5;entryY=0;entryDx=0;entryDy=0;fontFamily=Times New Roman;fontSize=12;" edge="1" parent="1" source="geLcxxCm4v_wb1jKpCUK-8" target="geLcxxCm4v_wb1jKpCUK-19">
          <mxGeometry relative="1" as="geometry">
            <Array as="points">
              <mxPoint x="420" y="670" />
              <mxPoint x="420" y="670" />
            </Array>
          </mxGeometry>
        </mxCell>
        <mxCell id="geLcxxCm4v_wb1jKpCUK-8" value="factorial" style="shape=parallelogram;perimeter=parallelogramPerimeter;whiteSpace=wrap;html=1;fixedSize=1;fontFamily=Times New Roman;fontSize=12;" vertex="1" parent="1">
          <mxGeometry x="360" y="590" width="120" height="60" as="geometry" />
        </mxCell>
        <mxCell id="geLcxxCm4v_wb1jKpCUK-9" value="factorial = factorial * digit&lt;br&gt;digit = digit + 1" style="rounded=0;whiteSpace=wrap;html=1;fontFamily=Times New Roman;fontSize=12;" vertex="1" parent="1">
          <mxGeometry x="195" y="430" width="120" height="60" as="geometry" />
        </mxCell>
        <mxCell id="geLcxxCm4v_wb1jKpCUK-14" style="edgeStyle=orthogonalEdgeStyle;rounded=0;orthogonalLoop=1;jettySize=auto;html=1;exitX=0.5;exitY=1;exitDx=0;exitDy=0;fontFamily=Times New Roman;fontSize=12;entryX=0.197;entryY=0.697;entryDx=0;entryDy=0;entryPerimeter=0;" edge="1" parent="1" source="geLcxxCm4v_wb1jKpCUK-9" target="geLcxxCm4v_wb1jKpCUK-3">
          <mxGeometry relative="1" as="geometry">
            <mxPoint x="315" y="540" as="sourcePoint" />
            <mxPoint x="380" y="490" as="targetPoint" />
            <Array as="points">
              <mxPoint x="255" y="540" />
              <mxPoint x="390" y="540" />
            </Array>
          </mxGeometry>
        </mxCell>
        <mxCell id="geLcxxCm4v_wb1jKpCUK-19" value="END" style="rounded=1;whiteSpace=wrap;html=1;fontFamily=Times New Roman;fontSize=12;" vertex="1" parent="1">
          <mxGeometry x="360" y="680" width="120" height="60" as="geometry" />
        </mxCell>
      </root>
    </mxGraphModel>
  </diagram>
  <diagram id="C3DP7CITanO1r47mSsUN" name="Страница 3">
    <mxGraphModel dx="1145" dy="691" grid="1" gridSize="10" guides="1" tooltips="1" connect="1" arrows="1" fold="1" page="1" pageScale="1" pageWidth="827" pageHeight="1169" math="0" shadow="0">
      <root>
        <mxCell id="0" />
        <mxCell id="1" parent="0" />
        <mxCell id="BSkpZKzZ_YEoer8AVgFb-1" value="&lt;font style=&quot;font-size: 20px;&quot; face=&quot;Times New Roman&quot;&gt;3. Блок-схема&amp;nbsp;&lt;span style=&quot;color: rgb(44, 45, 48); text-align: left; background-color: rgb(255, 255, 255);&quot;&gt;нахождения N-го числа Фибоначчи&lt;/span&gt;&lt;/font&gt;" style="text;html=1;align=center;verticalAlign=middle;resizable=0;points=[];autosize=1;strokeColor=none;fillColor=none;fontStyle=1" vertex="1" parent="1">
          <mxGeometry x="185" y="20" width="470" height="40" as="geometry" />
        </mxCell>
        <mxCell id="BSkpZKzZ_YEoer8AVgFb-5" style="edgeStyle=orthogonalEdgeStyle;rounded=0;orthogonalLoop=1;jettySize=auto;html=1;exitX=0.5;exitY=1;exitDx=0;exitDy=0;entryX=0.5;entryY=0;entryDx=0;entryDy=0;fontFamily=Times New Roman;fontSize=12;" edge="1" parent="1" source="BSkpZKzZ_YEoer8AVgFb-2" target="BSkpZKzZ_YEoer8AVgFb-3">
          <mxGeometry relative="1" as="geometry" />
        </mxCell>
        <mxCell id="BSkpZKzZ_YEoer8AVgFb-2" value="START" style="rounded=1;whiteSpace=wrap;html=1;fontFamily=Times New Roman;fontSize=12;" vertex="1" parent="1">
          <mxGeometry x="354" y="100" width="120" height="60" as="geometry" />
        </mxCell>
        <mxCell id="BSkpZKzZ_YEoer8AVgFb-6" style="edgeStyle=orthogonalEdgeStyle;rounded=0;orthogonalLoop=1;jettySize=auto;html=1;exitX=0.5;exitY=1;exitDx=0;exitDy=0;entryX=0.5;entryY=0;entryDx=0;entryDy=0;fontFamily=Times New Roman;fontSize=12;" edge="1" parent="1" source="BSkpZKzZ_YEoer8AVgFb-3">
          <mxGeometry relative="1" as="geometry">
            <mxPoint x="414" y="300.0000000000001" as="targetPoint" />
          </mxGeometry>
        </mxCell>
        <mxCell id="BSkpZKzZ_YEoer8AVgFb-3" value="fibonacci_n" style="shape=parallelogram;perimeter=parallelogramPerimeter;whiteSpace=wrap;html=1;fixedSize=1;fontFamily=Times New Roman;fontSize=12;" vertex="1" parent="1">
          <mxGeometry x="354" y="200" width="120" height="60" as="geometry" />
        </mxCell>
        <mxCell id="BSkpZKzZ_YEoer8AVgFb-10" style="edgeStyle=orthogonalEdgeStyle;rounded=0;orthogonalLoop=1;jettySize=auto;html=1;exitX=0.5;exitY=1;exitDx=0;exitDy=0;entryX=0.5;entryY=0;entryDx=0;entryDy=0;fontFamily=Times New Roman;fontSize=12;" edge="1" parent="1" source="BSkpZKzZ_YEoer8AVgFb-8" target="BSkpZKzZ_YEoer8AVgFb-9">
          <mxGeometry relative="1" as="geometry" />
        </mxCell>
        <mxCell id="BSkpZKzZ_YEoer8AVgFb-8" value="fib1" style="shape=parallelogram;perimeter=parallelogramPerimeter;whiteSpace=wrap;html=1;fixedSize=1;fontFamily=Times New Roman;fontSize=12;" vertex="1" parent="1">
          <mxGeometry x="354" y="580" width="120" height="60" as="geometry" />
        </mxCell>
        <mxCell id="BSkpZKzZ_YEoer8AVgFb-9" value="END" style="rounded=1;whiteSpace=wrap;html=1;fontFamily=Times New Roman;fontSize=12;" vertex="1" parent="1">
          <mxGeometry x="354" y="680" width="120" height="60" as="geometry" />
        </mxCell>
        <mxCell id="YrtnCCMC2zQJdXDi3pbu-7" style="edgeStyle=orthogonalEdgeStyle;rounded=0;orthogonalLoop=1;jettySize=auto;html=1;exitX=0.5;exitY=1;exitDx=0;exitDy=0;entryX=0.5;entryY=0;entryDx=0;entryDy=0;fontFamily=Times New Roman;fontSize=12;" edge="1" parent="1" source="YrtnCCMC2zQJdXDi3pbu-3" target="YrtnCCMC2zQJdXDi3pbu-4">
          <mxGeometry relative="1" as="geometry" />
        </mxCell>
        <mxCell id="YrtnCCMC2zQJdXDi3pbu-3" value="fib1 = 0&lt;br&gt;fib2 = 1&lt;br&gt;count = 1&lt;br&gt;fib_n = 0" style="rounded=0;whiteSpace=wrap;html=1;fontFamily=Times New Roman;fontSize=12;" vertex="1" parent="1">
          <mxGeometry x="354" y="300" width="120" height="60" as="geometry" />
        </mxCell>
        <mxCell id="YrtnCCMC2zQJdXDi3pbu-8" value="NO" style="edgeStyle=orthogonalEdgeStyle;rounded=0;orthogonalLoop=1;jettySize=auto;html=1;exitX=1;exitY=0.5;exitDx=0;exitDy=0;fontFamily=Times New Roman;fontSize=12;" edge="1" parent="1" source="YrtnCCMC2zQJdXDi3pbu-4" target="BSkpZKzZ_YEoer8AVgFb-8">
          <mxGeometry x="-0.7637" y="10" relative="1" as="geometry">
            <mxPoint x="470" y="600" as="targetPoint" />
            <Array as="points">
              <mxPoint x="520" y="440" />
              <mxPoint x="520" y="610" />
            </Array>
            <mxPoint as="offset" />
          </mxGeometry>
        </mxCell>
        <mxCell id="YrtnCCMC2zQJdXDi3pbu-9" value="YES" style="edgeStyle=orthogonalEdgeStyle;rounded=0;orthogonalLoop=1;jettySize=auto;html=1;exitX=0;exitY=0.5;exitDx=0;exitDy=0;entryX=0.564;entryY=-0.003;entryDx=0;entryDy=0;entryPerimeter=0;fontFamily=Times New Roman;fontSize=12;" edge="1" parent="1" source="YrtnCCMC2zQJdXDi3pbu-4" target="YrtnCCMC2zQJdXDi3pbu-6">
          <mxGeometry x="-0.2621" y="-10" relative="1" as="geometry">
            <mxPoint as="offset" />
          </mxGeometry>
        </mxCell>
        <mxCell id="YrtnCCMC2zQJdXDi3pbu-4" value="count &amp;lt;= fibonacci_n" style="rhombus;whiteSpace=wrap;html=1;fontFamily=Times New Roman;fontSize=12;" vertex="1" parent="1">
          <mxGeometry x="374" y="400" width="80" height="80" as="geometry" />
        </mxCell>
        <mxCell id="YrtnCCMC2zQJdXDi3pbu-10" style="edgeStyle=orthogonalEdgeStyle;rounded=0;orthogonalLoop=1;jettySize=auto;html=1;exitX=1;exitY=0.5;exitDx=0;exitDy=0;entryX=0.5;entryY=1;entryDx=0;entryDy=0;fontFamily=Times New Roman;fontSize=12;" edge="1" parent="1" source="YrtnCCMC2zQJdXDi3pbu-6" target="YrtnCCMC2zQJdXDi3pbu-4">
          <mxGeometry relative="1" as="geometry" />
        </mxCell>
        <mxCell id="YrtnCCMC2zQJdXDi3pbu-6" value="fib_n = fib1&lt;br&gt;fib1 = fib 2&lt;br&gt;fib2 = fib_n + fib2&lt;br&gt;count = count + 1" style="rounded=0;whiteSpace=wrap;html=1;fontFamily=Times New Roman;fontSize=12;" vertex="1" parent="1">
          <mxGeometry x="254" y="480" width="120" height="60" as="geometry" />
        </mxCell>
        <mxCell id="YrtnCCMC2zQJdXDi3pbu-11" value="либо с еще одной временной переменной:&lt;br&gt;&lt;span style=&quot;&quot;&gt;fib1_n = fib1&lt;br&gt;&lt;/span&gt;fib2_n = fib2&lt;br style=&quot;&quot;&gt;&lt;span style=&quot;&quot;&gt;fib1 = fib 2&lt;/span&gt;&lt;br style=&quot;&quot;&gt;&lt;span style=&quot;&quot;&gt;fib2 = fib1_n + fib2_n&lt;/span&gt;&lt;br style=&quot;&quot;&gt;&lt;span style=&quot;&quot;&gt;count = count + 1&lt;/span&gt;" style="text;html=1;align=center;verticalAlign=middle;resizable=0;points=[];autosize=1;strokeColor=none;fillColor=none;fontSize=12;fontFamily=Times New Roman;" vertex="1" parent="1">
          <mxGeometry x="10" y="440" width="240" height="100" as="geometry" />
        </mxCell>
      </root>
    </mxGraphModel>
  </diagram>
</mxfile>
